<svg xmlns="http://www.w3.org/2000/svg" viewBox="0 0 100 100" width="100" height="100"><rect width="100" height="100" fill="#ffffff" rx="24"/><path fill="#ffffff" d="M22 31c0-6.1 4.9-11 11-11h34c6.1 0 11 4.9 11 11v38c0 6.1-4.9 11-11 11H33c-6.1 0-11-4.9-11-11V31Z"/><path stroke="#ffffff" stroke-linecap="round" stroke-width="5" d="M22 36h56"/><path stroke="#ffffff" stroke-linecap="round" stroke-width="5" d="M34 29h18"/><rect width="14" height="14" x="34" y="48" fill="#ffffff" rx="4"/><rect width="14" height="14" x="55" y="48" fill="#ffffff" rx="4"/><rect width="14" height="14" x="34" y="67" fill="#ffffff" rx="4"/><rect width="14" height="14" x="55" y="67" fill="#ffffff" rx="4"/><path fill="#ffffff" d="M50 27l3 7.7 7.7 3-7.7 3-3 7.7-3-7.7-7.7-3 7.7-3 3-7.7Z"/><path fill="none" stroke="#ffffff" stroke-linecap="round" stroke-linejoin="round" stroke-width="7" d="M78 63v15H63"/><path stroke="#ffffff" stroke-linecap="round" stroke-width="7" d="M76 65 60 81"/><path fill="none" stroke="#ffffff" stroke-linecap="round" stroke-linejoin="round" stroke-width="2.5" d="M78 63v15H63"/><path stroke="#ffffff" stroke-linecap="round" stroke-width="2.5" d="M76 65 60 81"/></svg>