<svg xmlns="http://www.w3.org/2000/svg" viewBox="0 0 100 100" width="100" height="100"><defs><linearGradient id="a" x1="8" x2="92" y1="6" y2="96" gradientUnits="userSpaceOnUse"><stop offset="0" stop-color="#0f172a"/><stop offset="1" stop-color="#111827"/></linearGradient><linearGradient id="b" x1="25" x2="80" y1="24" y2="86" gradientUnits="userSpaceOnUse"><stop offset="0" stop-color="#67e8f9"/><stop offset=".55" stop-color="#22d3ee"/><stop offset="1" stop-color="#14b8a6"/></linearGradient></defs><rect width="100" height="100" fill="url(#a)" rx="24"/><path fill="#f8fafc" d="M22 31c0-6.1 4.9-11 11-11h34c6.1 0 11 4.9 11 11v38c0 6.1-4.9 11-11 11H33c-6.1 0-11-4.9-11-11V31Z"/><path stroke="#cbd5e1" stroke-linecap="round" stroke-width="5" d="M22 36h56"/><path stroke="#0f172a" stroke-linecap="round" stroke-width="5" d="M34 29h18"/><rect width="14" height="14" x="34" y="48" fill="url(#b)" rx="4"/><rect width="14" height="14" x="55" y="48" fill="#0f172a" rx="4"/><rect width="14" height="14" x="34" y="67" fill="#0f172a" rx="4"/><rect width="14" height="14" x="55" y="67" fill="url(#b)" rx="4"/><path fill="#facc15" d="M50 27l3 7.7 7.7 3-7.7 3-3 7.7-3-7.7-7.7-3 7.7-3 3-7.7Z"/><path fill="none" stroke="#14b8a6" stroke-linecap="round" stroke-linejoin="round" stroke-width="7" d="M78 63v15H63"/><path stroke="#14b8a6" stroke-linecap="round" stroke-width="7" d="M76 65 60 81"/><path fill="none" stroke="#f8fafc" stroke-linecap="round" stroke-linejoin="round" stroke-width="2.5" d="M78 63v15H63"/><path stroke="#f8fafc" stroke-linecap="round" stroke-width="2.5" d="M76 65 60 81"/></svg>