<svg xmlns="http://www.w3.org/2000/svg" viewBox="0 0 380 120" width="380" height="120" role="img" aria-labelledby="title desc">
  <title id="title">favicon-tool logo</title>
  <desc id="desc">A browser favicon tile with woven pixels, a sparkle, and the favicon-tool wordmark.</desc>
  <defs>
    <linearGradient id="ft-bg" x1="8" y1="6" x2="92" y2="96" gradientUnits="userSpaceOnUse">
      <stop offset="0" stop-color="#0f172a"/>
      <stop offset="1" stop-color="#111827"/>
    </linearGradient>
    <linearGradient id="ft-aqua" x1="25" y1="24" x2="80" y2="86" gradientUnits="userSpaceOnUse">
      <stop offset="0" stop-color="#67e8f9"/>
      <stop offset=".55" stop-color="#22d3ee"/>
      <stop offset="1" stop-color="#14b8a6"/>
    </linearGradient>
  </defs>

  <g transform="translate(10 10)">
    <rect width="100" height="100" rx="24" fill="url(#ft-bg)"/>
    <path d="M22 31c0-6.1 4.9-11 11-11h34c6.1 0 11 4.9 11 11v38c0 6.1-4.9 11-11 11H33c-6.1 0-11-4.9-11-11V31Z" fill="#f8fafc"/>
    <path d="M22 36h56" stroke="#cbd5e1" stroke-width="5" stroke-linecap="round"/>
    <path d="M34 29h18" stroke="#0f172a" stroke-width="5" stroke-linecap="round"/>
    <rect x="34" y="48" width="14" height="14" rx="4" fill="url(#ft-aqua)"/>
    <rect x="55" y="48" width="14" height="14" rx="4" fill="#0f172a"/>
    <rect x="34" y="67" width="14" height="14" rx="4" fill="#0f172a"/>
    <rect x="55" y="67" width="14" height="14" rx="4" fill="url(#ft-aqua)"/>
    <path d="M50 27l3 7.7 7.7 3-7.7 3-3 7.7-3-7.7-7.7-3 7.7-3 3-7.7Z" fill="#facc15"/>
    <path d="M78 63v15H63" fill="none" stroke="#14b8a6" stroke-width="7" stroke-linecap="round" stroke-linejoin="round"/>
    <path d="M76 65 60 81" stroke="#14b8a6" stroke-width="7" stroke-linecap="round"/>
    <path d="M78 63v15H63" fill="none" stroke="#f8fafc" stroke-width="2.5" stroke-linecap="round" stroke-linejoin="round"/>
    <path d="M76 65 60 81" stroke="#f8fafc" stroke-width="2.5" stroke-linecap="round"/>
  </g>

  <g transform="translate(130 32)" fill="#0f172a" font-family="Inter, Segoe UI, Arial, sans-serif">
    <text x="0" y="26" font-size="34" font-weight="800">favicon</text>
    <text x="0" y="56" font-size="27" font-weight="700" fill="#14b8a6">tool</text>
  </g>
</svg>
